<?xml version="1.0" encoding="utf-8"?>
<!-- Generator: Adobe Illustrator 22.0.1, SVG Export Plug-In . SVG Version: 6.00 Build 0)  -->
<svg version="1.1" id="Слой_1" xmlns="http://www.w3.org/2000/svg" xmlns:xlink="http://www.w3.org/1999/xlink" x="0px" y="0px"
	 viewBox="0 0 694 115.4" style="enable-background:new 0 0 694 115.4;" xml:space="preserve">
<style type="text/css">
	.st0{fill:#66A6FF;}
	.st1{fill:#667CE7;}
	.st2{fill:#FFFFFF;stroke:#FFFFFF;}
	.st3{fill:#FFFFFF;}
</style>
<g id="Group_114" transform="translate(0 -10)">
	<path id="Path_71" class="st0" d="M96,54.4V10l7.3,3.8l85.2,48.8c2.3,1.3,3.1,4.3,1.8,6.7c-0.4,0.7-1,1.3-1.8,1.8l-28.8,16.7
		c-1.5,0.9-3.4,0.9-4.9,0L98.4,55.6L96,54.4z"/>
	<path id="Path_74" class="st1" d="M96,125.2V80.8l2.4-1.2l57-33c1.5-0.9,3.3-0.9,4.9,0l29.1,16.6c2.3,1.3,3.1,4.3,1.8,6.6
		c-0.4,0.7-1,1.4-1.8,1.8l-86.1,49.8L96,125.2L96,125.2z"/>
	<path id="Path_76" class="st1" d="M95.9,10v44.4l-2.4,1.2l-57,33c-1.5,0.9-3.3,0.9-4.9,0L2.5,72c-2.3-1.3-3.1-4.3-1.8-6.6
		c0.4-0.7,1-1.4,1.8-1.8l86.1-49.8L95.9,10L95.9,10z"/>
	<path id="Path_77" class="st0" d="M95.9,80.9v44.4l-7.3-3.8L2.4,71.7c-2.3-1.3-3.1-4.3-1.8-6.7c0.4-0.7,1-1.3,1.8-1.8l28.8-16.7
		c1.5-0.9,3.4-0.9,4.9,0l57.4,33.1L95.9,80.9z"/>
</g>
<g id="Group_113" transform="translate(0 9)">
	<g id="RegisteredTM" transform="translate(1959.292 8354.292)">
		<circle id="Ellipse_21" class="st2" cx="-1271" cy="-8339.3" r="5.2"/>
		<path id="Path_87" class="st3" d="M-1271.3-8339.8c0.2,0,0.5,0,0.7-0.2c0.3-0.3,0.3-0.8,0-1.2c-0.2-0.1-0.5-0.2-0.7-0.2h-0.7v1.6
			L-1271.3-8339.8 M-1272-8338.7v2.3h-1.6v-6.1h2.4c0.6,0,1.2,0.1,1.8,0.4c0.4,0.3,0.6,0.8,0.6,1.3c0,0.4-0.1,0.7-0.3,1
			c-0.2,0.3-0.5,0.5-0.9,0.6c0.2,0.1,0.4,0.2,0.6,0.3c0.2,0.2,0.4,0.5,0.5,0.8l0.9,1.7h-1.7l-0.7-1.5c-0.1-0.2-0.3-0.5-0.5-0.6
			c-0.2-0.1-0.4-0.2-0.6-0.2L-1272-8338.7"/>
	</g>
	<path id="Path_88" class="st3" d="M244.8,73.2c-6.2,0-11.4-1.3-15.5-4c-4.1-2.6-7.2-6.5-8.8-11l12-7c2.4,5.6,6.7,8.4,12.8,8.4
		c5.5,0,8.3-1.7,8.3-5c0-1.8-1-3.4-2.7-4.2c-1.8-1-5.1-2.2-10-3.5c-2.3-0.6-4.5-1.4-6.7-2.3c-2-0.9-3.9-2.1-5.6-3.4
		c-1.8-1.4-3.3-3.2-4.2-5.4c-1-2.3-1.5-4.9-1.4-7.4c-0.2-5.2,2-10.2,6-13.5c4-3.4,9.1-5.2,14.4-5c4.7-0.1,9.2,1.1,13.2,3.5
		c3.9,2.5,7.1,6,9,10.2L254,30.5c-0.9-2.1-2.3-3.9-4.1-5.3c-1.9-1.3-4.2-1.9-6.4-1.8c-1.7-0.1-3.4,0.4-4.8,1.3
		c-1.1,0.8-1.7,2-1.7,3.3c0,1.6,0.8,3,2.1,3.9c1.4,1.1,4.4,2.3,8.8,3.7c2.4,0.8,4.3,1.4,5.7,1.8c1.7,0.6,3.4,1.4,5.1,2.3
		c1.8,0.8,3.3,2,4.7,3.4c1.2,1.4,2.2,3,2.9,4.7c0.9,2.1,1.3,4.4,1.3,6.7c0,5.8-2.1,10.4-6.3,13.7S251.6,73.2,244.8,73.2z M313,66.6
		c-4.3,4.3-10.2,6.7-16.4,6.6c-6.1,0.1-12.1-2.3-16.4-6.7c-4.4-4.3-6.8-10.2-6.7-16.3c-0.1-6.1,2.3-12,6.7-16.3
		c4.3-4.4,10.2-6.8,16.4-6.7c6.1-0.1,12.1,2.3,16.4,6.7c4.4,4.3,6.8,10.2,6.7,16.3C319.8,56.4,317.4,62.3,313,66.6z M289.5,57.6
		c1.9,1.9,4.5,2.9,7.1,2.9c2.7,0.1,5.3-1,7.1-2.9c1.9-2,3-4.6,2.9-7.4c0.1-2.8-0.9-5.4-2.9-7.4c-1.9-1.9-4.5-2.9-7.1-2.9
		c-2.7-0.1-5.3,1-7.1,2.9c-1.9,2-3,4.6-2.9,7.4C286.5,53,287.5,55.7,289.5,57.6z M327.5,72V8.5h13V72H327.5z M362.6,22.4
		c-1.4,1.5-3.4,2.3-5.5,2.3c-2.1,0-4.1-0.8-5.5-2.3c-1.5-1.4-2.3-3.4-2.3-5.5c0-2.1,0.8-4.1,2.3-5.5C353,9.8,355,9,357.1,9
		c2.1,0,4.1,0.8,5.5,2.3c1.5,1.4,2.3,3.4,2.3,5.5C364.9,18.9,364.1,21,362.6,22.4z M350.6,72V28.5h13.1V72H350.6z M405.2,11.1h13.1
		V72h-13.1v-4.1c-3.1,3.5-7.4,5.3-13,5.3c-5.6,0-11-2.4-14.7-6.7c-4.1-4.4-6.2-10.3-6.1-16.3c-0.2-6,2-11.9,6.1-16.3
		c3.7-4.3,9.1-6.7,14.7-6.7c5.6,0,9.9,1.8,13,5.3V11.1z M387.4,58c2,1.9,4.7,3,7.5,2.9c2.8,0.1,5.5-0.9,7.5-2.9c2-2.1,3-4.9,2.9-7.7
		c0.1-2.9-0.9-5.7-2.9-7.7c-2-1.9-4.7-3-7.5-2.9c-2.8-0.1-5.5,0.9-7.5,2.9c-2,2.1-3,4.9-2.9,7.7C384.3,53.1,385.4,55.9,387.4,58z
		 M436.5,66.3h29.6V72h-35.7V11.1h35.2v5.7h-29.1v21.6h27v5.7h-27V66.3z M512.6,72h-6.9l-13.6-17.9L478.6,72h-6.9l17.1-22.5
		l-15.9-21h6.9l12.4,16.4l12.4-16.4h6.9l-15.8,21L512.6,72z M544.2,27.5c6-0.1,11.7,2.3,15.9,6.6c4.3,4.3,6.7,10.1,6.6,16.2
		c0.1,6.1-2.2,11.9-6.6,16.2c-4.1,4.3-9.9,6.7-15.9,6.6c-7.7,0-13.6-3.2-17.6-9.6v25.9h-5.7V28.5h5.7V37
		C530.6,30.6,536.5,27.5,544.2,27.5z M531.6,62.5c3.2,3.3,7.6,5.1,12.2,5c4.6,0.1,9-1.7,12.2-5c3.3-3.2,5.1-7.6,5-12.2
		c0.1-4.6-1.7-9-5-12.2c-3.2-3.3-7.6-5.1-12.2-5c-4.6-0.1-9,1.7-12.2,5c-3.3,3.2-5.1,7.6-5,12.2C526.6,54.8,528.3,59.3,531.6,62.5z
		 M596.8,27.5c6-0.2,11.7,2.3,15.6,6.8c3.9,4.4,6.1,10.2,6,16.1c0,0.6-0.1,1.5-0.2,2.7H580c0.4,4.1,2.4,7.9,5.6,10.5
		c3.3,2.6,7.5,4,11.7,3.9c3,0.1,5.9-0.6,8.6-2c2.3-1.2,4.2-3.1,5.4-5.4l5,3c-1.9,3.1-4.6,5.6-7.8,7.3c-3.5,1.8-7.4,2.8-11.3,2.7
		c-6.8,0-12.4-2.1-16.7-6.4c-4.3-4.3-6.4-9.7-6.4-16.4c-0.2-6.1,2.1-11.9,6.4-16.3C584.6,29.6,590.1,27.5,596.8,27.5z M596.8,33
		c-4.2-0.1-8.2,1.3-11.4,4c-3,2.7-5,6.4-5.4,10.5h32.4c-0.6-4.6-2.3-8.1-5.3-10.7C604.3,34.3,600.6,33,596.8,33z M633.7,35.7
		c2.7-5.3,7.2-7.9,13.7-7.9v5.6c-3.6-0.1-7.1,1.1-9.8,3.5c-2.6,2.3-3.9,6-3.9,11V72h-5.7V28.5h5.7L633.7,35.7z M679.6,34.1h-12.5
		v26.4c0,2.4,0.5,4.1,1.4,5.1c1.1,1.1,2.6,1.7,4.2,1.6c1.9,0,4.2,0,7-0.1v5c-6.1,0.9-10.7,0.5-13.7-1.3c-3-1.8-4.6-5.2-4.6-10.3
		V34.1h-9.1v-5.6h9.1V18.1l5.7-1.7v12.2h12.5L679.6,34.1z"/>
	<path id="Path_89" class="st3" d="M226.4,101.3c-1.6,0-3.1-0.4-4.4-1.2c-1.2-0.8-2.1-1.9-2.5-3.3l1.2-0.7c0.3,1.1,1,2.1,2,2.8
		c1.1,0.7,2.4,1.1,3.7,1c1.3,0.1,2.5-0.3,3.5-1.1c0.8-0.7,1.3-1.7,1.2-2.7c0-1-0.4-1.9-1.2-2.4c-1.1-0.7-2.4-1.3-3.7-1.6
		c-0.6-0.2-1.1-0.3-1.3-0.4c-0.3-0.1-0.7-0.2-1.2-0.5c-0.4-0.1-0.8-0.3-1.2-0.6c-0.3-0.2-0.6-0.4-0.9-0.6c-0.3-0.2-0.6-0.5-0.8-0.8
		c-0.2-0.3-0.3-0.7-0.4-1c-0.1-0.4-0.2-0.8-0.2-1.3c-0.1-1.4,0.6-2.8,1.6-3.7c1.1-0.9,2.6-1.4,4.1-1.4c1.3,0,2.7,0.4,3.8,1.1
		c1,0.7,1.8,1.7,2.3,2.9l-1.2,0.7c-0.7-2.1-2.7-3.4-4.9-3.3c-1.1-0.1-2.2,0.3-3.1,1c-0.8,0.7-1.2,1.6-1.2,2.6
		c-0.1,0.9,0.3,1.8,1.1,2.3c1.1,0.7,2.3,1.2,3.5,1.6c1,0.3,1.9,0.6,2.4,0.9c0.7,0.3,1.3,0.6,1.9,1c0.6,0.4,1.1,0.9,1.5,1.5
		c0.3,0.6,0.5,1.3,0.5,2c0.1,1.5-0.6,2.8-1.7,3.8C229.7,100.9,228.1,101.4,226.4,101.3z M242.6,101.3c-1.9,0-3.7-0.7-5-2
		c-1.4-1.3-2.1-3.1-2.1-5c0-1.9,0.7-3.7,2.1-5c1.3-1.3,3.1-2.1,5-2c1.9,0,3.7,0.7,5,2c1.4,1.3,2.1,3.1,2.1,5c0,1.9-0.7,3.7-2.1,5
		C246.3,100.6,244.5,101.3,242.6,101.3z M238.5,98.3c1.1,1.1,2.5,1.7,4.1,1.7c1.5,0,3-0.6,4.1-1.7c1.1-1.1,1.7-2.5,1.6-4.1
		c0-1.5-0.6-3-1.6-4.1c-1.1-1.1-2.5-1.7-4.1-1.7c-1.5,0-3,0.6-4.1,1.7c-1.1,1.1-1.7,2.5-1.7,4.1C236.8,95.8,237.4,97.2,238.5,98.3z
		 M258.9,83.1c-2.7-0.2-4,1-4,3.7v0.7h4v1.3h-4V101h-1.4V88.8h-2.3v-1.3h2.3v-0.7c-0.1-1.4,0.4-2.8,1.4-3.8c1.1-0.9,2.6-1.3,4-1.1
		V83.1z M268.4,88.8h-4v8.8c-0.1,0.6,0.1,1.2,0.4,1.7c0.3,0.4,0.8,0.6,1.3,0.6c0.8,0,1.5,0,2.3-0.1v1.2c-1.4,0.3-2.8,0.2-4.1-0.4
		c-1-0.7-1.5-1.8-1.3-3v-8.8h-3v-1.3h3v-3.4l1.4-0.4v3.8h4V88.8z M288.2,87.5h1.4l-4.3,13.5h-1.5l-3.8-11.5l-3.8,11.5h-1.5
		l-4.3-13.5h1.4l3.6,11.7l3.8-11.7h1.4l3.8,11.7L288.2,87.5z M304.1,87.5h1.4V101h-1.4v-3.1c-0.6,1-1.4,1.9-2.4,2.5
		c-1,0.6-2.2,0.9-3.4,0.9c-1.9,0-3.6-0.7-4.9-2c-1.3-1.3-2.1-3.1-2.1-5c0-1.9,0.7-3.7,2.1-5c1.3-1.3,3.1-2.1,4.9-2
		c1.2,0,2.4,0.3,3.4,0.9c1,0.6,1.8,1.4,2.4,2.5V87.5z M294.3,98.3c1.1,1.1,2.5,1.7,4.1,1.7c1.5,0,3-0.6,4-1.7
		c1.1-1.1,1.7-2.5,1.7-4.1c0-1.5-0.6-3-1.7-4.1c-1.1-1.1-2.5-1.7-4.1-1.7c-1.5,0-3,0.6-4.1,1.7c-1.1,1.1-1.7,2.5-1.7,4.1
		C292.6,95.8,293.2,97.3,294.3,98.3z M311.1,90.1c0.7-1.8,2.5-3,4.5-2.8v1.3c-1.2,0-2.3,0.4-3.2,1.2c-0.9,1-1.4,2.3-1.3,3.7v7.5
		h-1.4V87.5h1.4L311.1,90.1z M323.7,87.2c1.8-0.1,3.6,0.7,4.8,2.1c1.2,1.4,1.9,3.2,1.8,5c0,0.1,0,0.2,0,0.3s0,0.3,0,0.3h-12.2
		c0.1,1.4,0.8,2.7,1.8,3.7c1.1,0.9,2.5,1.4,3.9,1.4c1,0,2-0.2,2.8-0.7c0.8-0.4,1.4-1,1.8-1.8l1.2,0.7c-0.6,0.9-1.4,1.7-2.4,2.2
		c-1.1,0.6-2.3,0.8-3.5,0.8c-1.9,0.1-3.7-0.7-5.1-2c-1.3-1.3-2.1-3.2-2-5.1c-0.1-1.9,0.7-3.7,2-5C320,87.9,321.8,87.1,323.7,87.2z
		 M323.7,88.5c-1.4,0-2.8,0.5-3.8,1.4c-1,1-1.7,2.3-1.8,3.7H329c-0.1-1.4-0.7-2.8-1.7-3.8C326.3,89,325,88.5,323.7,88.5z M350,101.3
		c-2.6,0.1-5.2-0.9-7-2.8c-1.8-1.8-2.8-4.3-2.8-6.9c-0.1-2.6,0.9-5.1,2.8-6.9c1.9-1.9,4.4-2.9,7-2.8c1.7,0,3.3,0.4,4.8,1.2
		c1.4,0.8,2.6,1.9,3.3,3.3l-1.3,0.7c-0.6-1.2-1.6-2.2-2.8-2.8c-1.2-0.7-2.6-1.1-4.1-1.1c-2.3-0.1-4.4,0.8-6,2.4
		c-1.6,1.6-2.4,3.7-2.4,6c-0.1,2.2,0.8,4.4,2.4,5.9c1.6,1.6,3.8,2.5,6,2.4c1.4,0,2.8-0.4,4.1-1.1c1.2-0.7,2.2-1.7,2.8-2.9l1.3,0.7
		c-0.8,1.4-1.9,2.6-3.3,3.4C353.4,100.9,351.7,101.3,350,101.3z M367.5,101.3c-1.9,0-3.7-0.7-5-2c-1.4-1.3-2.1-3.1-2.1-5
		c0-1.9,0.7-3.7,2.1-5c1.3-1.3,3.1-2.1,5-2c1.9,0,3.7,0.7,5,2c1.4,1.3,2.1,3.1,2.1,5c0,1.9-0.7,3.7-2.1,5
		C371.2,100.6,369.4,101.3,367.5,101.3z M363.4,98.3c1.1,1.1,2.5,1.7,4.1,1.7c1.5,0,3-0.6,4.1-1.7c1.1-1.1,1.7-2.6,1.6-4.1
		c0-1.5-0.6-3-1.6-4.1c-1.1-1.1-2.5-1.7-4.1-1.7c-1.5,0-3,0.6-4.1,1.7c-1.1,1.1-1.7,2.5-1.7,4.1C361.7,95.8,362.3,97.2,363.4,98.3z
		 M392.4,87.2c1.3-0.1,2.6,0.4,3.6,1.4c1,1.1,1.4,2.4,1.3,3.9v8.6h-1.3v-8.6c0.1-1.1-0.3-2.1-1-2.9c-0.7-0.7-1.6-1.1-2.6-1
		c-1.1,0-2.2,0.4-2.9,1.2c-0.8,1.1-1.2,2.4-1.1,3.7v7.5h-1.4v-8.6c0.1-1.1-0.3-2.1-0.9-2.9c-0.6-0.7-1.6-1.1-2.5-1
		c-1.1,0-2.2,0.4-3,1.3c-0.9,1-1.3,2.4-1.2,3.7v7.5h-1.4V87.5h1.4v2.3c0.8-1.7,2.5-2.7,4.3-2.6c0.9,0,1.8,0.2,2.6,0.7
		c0.7,0.5,1.3,1.2,1.6,2c0.4-0.9,1.1-1.6,1.9-2.1C390.5,87.4,391.4,87.2,392.4,87.2z M408.4,87.2c1.9,0,3.7,0.7,5,2
		c1.3,1.3,2.1,3.1,2,5c0,1.9-0.7,3.7-2,5c-1.3,1.3-3.1,2.1-5,2c-1.2,0-2.4-0.3-3.4-0.9c-1-0.6-1.8-1.5-2.4-2.5v8.5h-1.3V87.5h1.4
		v3.1c0.5-1,1.4-1.9,2.4-2.5C406,87.5,407.2,87.2,408.4,87.2L408.4,87.2z M404.2,98.3c1.1,1.1,2.5,1.7,4.1,1.7c1.5,0,3-0.6,4.1-1.7
		c1.1-1.1,1.7-2.5,1.7-4.1c0-1.5-0.6-3-1.7-4.1c-1.1-1.1-2.5-1.7-4.1-1.7c-1.5,0-3,0.6-4.1,1.7c-1.1,1.1-1.7,2.5-1.7,4.1
		C402.5,95.8,403.1,97.2,404.2,98.3z M430.6,87.5h1.4V101h-1.4v-3.1c-0.6,1-1.4,1.9-2.4,2.5c-1,0.6-2.2,0.9-3.4,0.9
		c-1.9,0-3.6-0.7-4.9-2c-1.3-1.3-2.1-3.1-2.1-5c0-1.9,0.7-3.7,2.1-5c1.3-1.3,3.1-2.1,4.9-2c1.2,0,2.4,0.3,3.4,0.9
		c1,0.6,1.8,1.4,2.4,2.5V87.5z M420.9,98.3c1.1,1.1,2.5,1.7,4.1,1.7c1.5,0,3-0.6,4.1-1.7c1.1-1.1,1.7-2.6,1.6-4.1
		c0-1.5-0.6-3-1.6-4.1c-1.1-1.1-2.5-1.7-4.1-1.7c-1.5,0-3,0.6-4.1,1.7c-1.1,1.1-1.7,2.5-1.7,4.1C419.2,95.8,419.8,97.2,420.9,98.3z
		 M442.5,87.2c1.4-0.1,2.8,0.5,3.8,1.5c1,1.1,1.5,2.5,1.4,3.9v8.4h-1.4v-8.4c0.1-1.1-0.3-2.2-1-3c-0.8-0.8-1.8-1.2-2.9-1.1
		c-1.3,0-2.5,0.5-3.4,1.4c-0.9,1.1-1.4,2.5-1.3,4v7.1h-1.3V87.5h1.4v2.6C438.5,88.2,440.4,87.1,442.5,87.2z M461.3,87.5h1.5
		l-5.8,14.7c-0.4,1.2-1.2,2.3-2.2,3.1c-0.9,0.7-2,1.1-3.1,1v-1.3c0.8,0.1,1.7-0.2,2.3-0.7c0.8-0.7,1.3-1.5,1.7-2.4l0.3-0.7
		l-6.2-13.7h1.5l5.5,12L461.3,87.5z"/>
</g>
</svg>
