<svg xmlns="http://www.w3.org/2000/svg" viewBox="0 0 1283.51099 178.09766"><defs><style>.cls-1{opacity:0.99;}.cls-2{fill:#00bfff;}.cls-3{fill:#0865ff;}.cls-4{fill:#d24a43;}.cls-5{fill:#fbdb4a;}.cls-6{fill:#edaf00;}.cls-7{fill:#fff;}</style></defs><title>Ресурс 3</title><g id="Слой_2" data-name="Слой 2"><g id="Слой_1-2" data-name="Слой 1" class="cls-1"><path class="cls-2" d="M8.51664,2.74893H66.87105a8.50393,8.50393,0,0,1,7.36215,4.2477L131.83256,106.628a8.504,8.504,0,0,1,.02346,8.47166L102.86585,165.8918a8.50394,8.50394,0,0,1-14.74777.04083L1.15449,15.50912A8.50394,8.50394,0,0,1,8.51664,2.74893Z"/><path class="cls-3" d="M123.6887,2.74893h58.34967a8.50394,8.50394,0,0,1,7.36215,12.76019l-87.0223,150.52507a8.50394,8.50394,0,0,1-14.71857.00992l-29.1643-50.28973a8.50394,8.50394,0,0,1-.0093-8.51627L116.323,7.00277A8.50394,8.50394,0,0,1,123.6887,2.74893Z"/><path class="cls-4" d="M219.94021,2.74893h58.24828a8.50394,8.50394,0,0,1,7.37309,12.7412l-86.36133,150.274a8.504,8.504,0,0,1-7.3731,4.26668h-59.359a8.50394,8.50394,0,0,1-7.34951-12.782l87.47207-150.274A8.50394,8.50394,0,0,1,219.94021,2.74893Z"/><path class="cls-5" d="M403.03837,170.28188H344.684a8.50391,8.50391,0,0,1-7.36215-4.24769L279.72245,66.40287a8.504,8.504,0,0,1-.02346-8.47166L308.68916,7.139a8.504,8.504,0,0,1,14.74777-.04083L410.40052,157.5217A8.50393,8.50393,0,0,1,403.03837,170.28188Z"/><path class="cls-6" d="M287.86631,170.28188H229.51664a8.50393,8.50393,0,0,1-7.36215-12.76018L309.17679,6.99663a8.50394,8.50394,0,0,1,14.71857-.00993l29.1643,50.28974a8.50392,8.50392,0,0,1,.0093,8.51626L295.232,166.028A8.50394,8.50394,0,0,1,287.86631,170.28188Z"/><path class="cls-7" d="M488.80005,119.04q-17.12256,0-28.55957-7.44043a40.5107,40.5107,0,0,1-16.24023-20.24023l22.08007-12.79981q6.72071,15.52149,23.52051,15.52051,15.19776,0,15.19922-9.12012,0-4.957-4.87988-7.75976-4.88232-2.79786-18.31934-6.48047a82.043,82.043,0,0,1-12.32031-4.32032,51.58772,51.58772,0,0,1-10.32031-6.31933,25.32975,25.32975,0,0,1-7.67969-9.83985,33.09086,33.09086,0,0,1-2.63965-13.60058q0-15.5171,11.11914-24.79981a40.01675,40.01675,0,0,1,26.48047-9.28027A45.55227,45.55227,0,0,1,510.56079,9.04a44.496,44.496,0,0,1,16.63965,18.7998L505.60083,40.47949a24.952,24.952,0,0,0-7.52051-9.67969q-4.48095-3.27686-11.83984-3.28027-5.75976,0-8.87988,2.48047a7.4426,7.4426,0,0,0-3.12012,6q0,4.16162,3.91992,7.2002,3.91847,3.041,16.24024,6.71972,6.71923,2.08155,10.39941,3.36035a74.13505,74.13505,0,0,1,9.36035,4.23926,30.75213,30.75213,0,0,1,8.63965,6.24024,31.5313,31.5313,0,0,1,5.28027,8.63964,30.59291,30.59291,0,0,1,2.32032,12.24024q0,16.002-11.52051,25.20019Q507.3606,119.042,488.80005,119.04Z"/><path class="cls-7" d="M613.27857,106.7998a43.07943,43.07943,0,0,1-60.15918,0,40.65038,40.65038,0,0,1-12.32032-30,41.93379,41.93379,0,0,1,42.40039-42.24023A41.93376,41.93376,0,0,1,625.59888,76.7998,40.6616,40.6616,0,0,1,613.27857,106.7998ZM570.07935,90.39941a18.939,18.939,0,0,0,26.23926,0,18.40214,18.40214,0,0,0,5.28027-13.59961,18.40674,18.40674,0,0,0-5.28027-13.5996,18.939,18.939,0,0,0-26.23926,0,18.40671,18.40671,0,0,0-5.28028,13.5996A18.40211,18.40211,0,0,0,570.07935,90.39941Z"/><path class="cls-7" d="M639.19849,116.7998V0h24V116.7998Z"/><path class="cls-7" d="M702.95825,25.51953a14.29263,14.29263,0,0,1-20.32031,0,13.85265,13.85265,0,0,1-4.23926-10.16015A13.85989,13.85989,0,0,1,682.63794,5.2002a14.29263,14.29263,0,0,1,20.32031,0,13.86836,13.86836,0,0,1,4.24024,10.15918A13.86111,13.86111,0,0,1,702.95825,25.51953ZM680.7981,116.7998v-80h24v80Z"/><path class="cls-7" d="M780.47779,4.7998h24v112h-24v-7.51953q-8.48292,9.76026-23.83985,9.75977-15.83935,0-27.04-12.24024-11.20165-12.24023-11.20019-30,0-17.75976,11.20019-30,11.19728-12.24022,27.04-12.24023,15.36036,0,23.83985,9.75977ZM747.678,91.04q5.27929,5.27929,13.75977,5.2793,8.47851,0,13.75976-5.2793,5.28077-5.28077,5.28028-14.24024,0-8.959-5.28028-14.24023-5.27929-5.2793-13.75976-5.2793-8.48292,0-13.75977,5.2793-5.28077,5.28076-5.28027,14.24023Q742.39771,85.76172,747.678,91.04Z"/><path class="cls-7" d="M840.15552,102.71973h52V116.7998H825.27564v-112h66.08007V18.87988H840.15552V53.28027h47.20019V67.2002H840.15552Z"/><path class="cls-7" d="M978.07544,116.7998H961.75513L939.35571,86.55957,916.79517,116.7998H900.47583l30.71973-41.12011-28.96-38.87989h16.47949l20.64062,27.83985L959.99536,36.7998h16.32032L947.51587,75.51953Z"/><path class="cls-7" d="M1035.19458,34.71973A38.38672,38.38672,0,0,1,1063.83521,46.96q11.83887,12.24024,11.83984,29.83984,0,17.603-11.83984,29.83985a38.38676,38.38676,0,0,1-28.64063,12.24023q-19.84131,0-30.23926-15.83984V148.7998H991.03443v-112h13.92089V50.55957Q1015.35278,34.72021,1035.19458,34.71973Zm-1.75976,70.71972A27.24811,27.24811,0,0,0,1053.595,97.2002a27.84953,27.84953,0,0,0,8.16016-20.4004,27.85578,27.85578,0,0,0-8.16016-20.40039,28.98005,28.98005,0,0,0-40.48047,0,27.855,27.855,0,0,0-8.15918,20.40039,27.84875,27.84875,0,0,0,8.15918,20.4004A27.43847,27.43847,0,0,0,1033.43482,105.43945Z"/><path class="cls-7" d="M1102.07446,83.2002q2.07715,10.72119,9.83985,16.63964,7.75781,5.92091,19.12012,5.91993,15.83936,0,23.04-11.67969l11.83985,6.71972q-11.68213,18.082-35.2002,18.08008-19.043,0-30.96-11.91992-11.92089-11.918-11.91992-30.16016,0-18.0791,11.67969-30.08007,11.67772-12,30.24023-12,17.59863,0,28.71973,12.40039Q1169.5935,59.52149,1169.594,76.96a42.12344,42.12344,0,0,1-.4795,6.24024Zm27.67969-35.36036q-11.20166,0-18.55957,6.32032A27.34972,27.34972,0,0,0,1102.07446,71.04h53.43946q-1.76222-11.35841-8.96-17.28027A25.66287,25.66287,0,0,0,1129.75415,47.83984Z"/><path class="cls-7" d="M1199.51392,50.24023q6.87744-14.88133,24.96-14.88085V49.91992a25.22589,25.22589,0,0,0-17.60059,5.43946q-7.36083,5.92236-7.35937,19.04V116.7998H1185.593v-80h13.9209Z"/><path class="cls-7" d="M1283.511,50.24023h-21.28028V93.59961q0,5.92091,2.32032,8.40039,2.31738,2.48291,7.12011,2.55957,4.8003.08349,11.83985-.24023V116.7998q-18.24024,2.39942-26.71973-2.96-8.4829-5.35839-8.48047-20.24023V50.24023h-15.83984V36.7998h15.83984V18.55957l13.91992-4.16016V36.7998H1283.511Z"/><path class="cls-7" d="M463.80884,169.07422a13.93485,13.93485,0,0,1-7.89648-2.18457,11.38586,11.38586,0,0,1-4.584-6.02344l2.87988-1.67969a8.82886,8.82886,0,0,0,3.36036,4.8711,10.54129,10.54129,0,0,0,6.28808,1.752,9.16747,9.16747,0,0,0,5.832-1.65527,5.32881,5.32881,0,0,0,2.08789-4.39258,4.54878,4.54878,0,0,0-1.91992-3.9834,25.55423,25.55423,0,0,0-6.33594-2.78418,37.32788,37.32788,0,0,1-6.91211-2.78418,7.34257,7.34257,0,0,1-3.83984-6.67187,8.30111,8.30111,0,0,1,2.97559-6.74414,11.11248,11.11248,0,0,1,7.34472-2.47168,11.48348,11.48348,0,0,1,6.81543,2.04,12.39909,12.39909,0,0,1,4.27246,5.208l-2.832,1.584a8.28242,8.28242,0,0,0-8.25586-5.56836,7.82608,7.82608,0,0,0-5.04,1.53613,5.1656,5.1656,0,0,0-1.91992,4.27246,4.31289,4.31289,0,0,0,1.72754,3.74317,21.80756,21.80756,0,0,0,5.71192,2.54394q1.82373.62549,2.61621.88867.79248.26367,2.30371.86328a14.46653,14.46653,0,0,1,2.23242,1.05664q.71924.457,1.75195,1.24805a5.6188,5.6188,0,0,1,1.48731,1.584,9.84178,9.84178,0,0,1,.8164,1.91992,7.91933,7.91933,0,0,1,.36035,2.42383,8.40843,8.40843,0,0,1-3.12011,6.83984A12.5016,12.5016,0,0,1,463.80884,169.07422Z"/><path class="cls-7" d="M501.03247,165.4502a12.86892,12.86892,0,0,1-17.90429,0,12.74874,12.74874,0,0,1,0-17.9043,12.86892,12.86892,0,0,1,17.90429,0,12.74874,12.74874,0,0,1,0,17.9043Zm-15.67187-2.208a9.56079,9.56079,0,0,0,13.43945,0,9.67919,9.67919,0,0,0,0-13.48828,9.56077,9.56077,0,0,0-13.43945,0,9.67919,9.67919,0,0,0,0,13.48828Z"/><path class="cls-7" d="M521.02368,137.39453q-3.50389-.28857-5.208,1.19922-1.70362,1.48828-1.70313,4.94434v.96h6.91113v3.07226h-6.91113v20.92774h-3.16894V147.57031H506.8645v-3.07226h4.07911v-.96q0-4.70362,2.61621-7.12793,2.61621-2.42286,7.46386-2.08789Z"/><path class="cls-7" d="M538.06275,147.57031h-6.91211v14.54395a4.121,4.121,0,0,0,.76757,2.80762,3.033,3.033,0,0,0,2.30469.86425q1.53516.0249,3.83985-.07226v2.78418q-5.04054.76758-7.56055-.71973-2.51954-1.48828-2.51953-5.66406V147.57031h-5.04v-3.07226h5.04v-5.75977l3.168-.96v6.71973h6.91211Z"/><path class="cls-7" d="M572.23853,144.49805h3.26367l-7.3916,24h-3.45606l-6.19238-19.34375-6.19141,19.34375H548.8147l-7.39258-24h3.26465l5.90332,19.91992,6.28809-19.91992h3.168l6.28809,19.91992Z"/><path class="cls-7" d="M599.98267,144.49805h3.168v24h-3.168V163.794a10.74351,10.74351,0,0,1-9.69629,5.28027,11.89115,11.89115,0,0,1-8.75977-3.64844,12.8087,12.8087,0,0,1,0-17.85547,11.89489,11.89489,0,0,1,8.75977-3.64843,10.74544,10.74544,0,0,1,9.69629,5.28027Zm-16.17578,18.74414a9.56079,9.56079,0,0,0,13.43945,0,9.67919,9.67919,0,0,0,0-13.48828,9.56077,9.56077,0,0,0-13.43945,0,9.67919,9.67919,0,0,0,0,13.48828Z"/><path class="cls-7" d="M613.03736,148.48242q2.20752-4.36816,7.584-4.36816v3.07226a7.862,7.862,0,0,0-5.42383,1.91993q-2.15918,1.92041-2.16015,6.04785v13.34375h-3.168v-24h3.168Z"/><path class="cls-7" d="M634.59009,143.92188a10.88885,10.88885,0,0,1,8.61621,3.76855,13.10368,13.10368,0,0,1,3.28711,8.90332q0,.52881-.0957,1.48828H625.32544a8.60335,8.60335,0,0,0,3.09668,5.78418,9.87262,9.87262,0,0,0,6.45606,2.13574,9.44206,9.44206,0,0,0,4.72753-1.12793,7.60966,7.60966,0,0,0,3-2.95214l2.78418,1.63183a11.38143,11.38143,0,0,1-4.32031,4.03223,12.85835,12.85835,0,0,1-6.23926,1.48828,12.46917,12.46917,0,0,1-9.21679-3.55176,12.22549,12.22549,0,0,1-3.55176-9.02441,12.35592,12.35592,0,0,1,3.50391-8.97559A12.03934,12.03934,0,0,1,634.59009,143.92188Zm0,3.07226a8.98489,8.98489,0,0,0-9.26465,8.01563h17.9043a8.95052,8.95052,0,0,0-2.92774-5.90332A8.47305,8.47305,0,0,0,634.59009,146.99414Z"/><path class="cls-7" d="M676.97388,134.89844a14.77091,14.77091,0,0,1,11.35254,4.87207,18.09626,18.09626,0,0,1,0,23.85547,14.771,14.771,0,0,1-11.35254,4.87207h-12.96V134.89844Zm0,30.43164a11.60151,11.60151,0,0,0,9.04785-3.93555,15.0875,15.0875,0,0,0,0-19.39258,11.60471,11.60471,0,0,0-9.04785-3.93554h-9.59961v27.26367Z"/><path class="cls-7" d="M709.18189,143.92188a10.88888,10.88888,0,0,1,8.61621,3.76855,13.10373,13.10373,0,0,1,3.28711,8.90332q0,.52881-.09571,1.48828H699.91724a8.60335,8.60335,0,0,0,3.09668,5.78418A9.8726,9.8726,0,0,0,709.47,166.002a9.44209,9.44209,0,0,0,4.72754-1.12793,7.60966,7.60966,0,0,0,3-2.95214l2.78418,1.63183a11.38143,11.38143,0,0,1-4.32031,4.03223,12.85837,12.85837,0,0,1-6.23926,1.48828,12.46919,12.46919,0,0,1-9.2168-3.55176,12.22552,12.22552,0,0,1-3.55175-9.02441,12.356,12.356,0,0,1,3.5039-8.97559A12.03936,12.03936,0,0,1,709.18189,143.92188Zm0,3.07226a8.98489,8.98489,0,0,0-9.26465,8.01563h17.9043a8.95057,8.95057,0,0,0-2.92774-5.90332A8.47307,8.47307,0,0,0,709.18189,146.99414Z"/><path class="cls-7" d="M742.44654,144.49805h3.36035l-9.83985,24H732.1272l-9.83984-24h3.35937l8.40039,20.68847Z"/><path class="cls-7" d="M759.77466,143.92188a10.88885,10.88885,0,0,1,8.61621,3.76855,13.10368,13.10368,0,0,1,3.28711,8.90332q0,.52881-.0957,1.48828H750.51a8.60335,8.60335,0,0,0,3.09668,5.78418,9.87262,9.87262,0,0,0,6.45606,2.13574,9.44212,9.44212,0,0,0,4.72754-1.12793,7.60979,7.60979,0,0,0,3-2.95214l2.78417,1.63183a11.38143,11.38143,0,0,1-4.32031,4.03223,12.85835,12.85835,0,0,1-6.23926,1.48828,12.46917,12.46917,0,0,1-9.21679-3.55176,12.22549,12.22549,0,0,1-3.55176-9.02441,12.35592,12.35592,0,0,1,3.50391-8.97559A12.03934,12.03934,0,0,1,759.77466,143.92188Zm0,3.07226a8.98489,8.98489,0,0,0-9.26465,8.01563h17.9043a8.95052,8.95052,0,0,0-2.92774-5.90332A8.47305,8.47305,0,0,0,759.77466,146.99414Z"/><path class="cls-7" d="M776.719,168.49805v-35.04h3.168v35.04Z"/><path class="cls-7" d="M806.74243,165.4502a12.86892,12.86892,0,0,1-17.90429,0,12.74874,12.74874,0,0,1,0-17.9043,12.86892,12.86892,0,0,1,17.90429,0,12.74874,12.74874,0,0,1,0,17.9043Zm-15.67187-2.208a9.56079,9.56079,0,0,0,13.43945,0,9.67919,9.67919,0,0,0,0-13.48828,9.56077,9.56077,0,0,0-13.43945,0,9.67919,9.67919,0,0,0,0,13.48828Z"/><path class="cls-7" d="M828.55689,143.92188a11.90016,11.90016,0,0,1,8.76074,3.64843,12.8087,12.8087,0,0,1,0,17.85547,11.89642,11.89642,0,0,1-8.76074,3.64844,10.742,10.742,0,0,1-9.69532-5.28027v14.30371h-3.168V144.49805h3.168v4.7041A10.74389,10.74389,0,0,1,828.55689,143.92188Zm-6.96,19.32031a9.562,9.562,0,0,0,13.44043,0,9.67922,9.67922,0,0,0,0-13.48828,9.562,9.562,0,0,0-13.44043,0,9.68165,9.68165,0,0,0,0,13.48828Z"/><path class="cls-7" d="M871.80493,143.92188a8.57689,8.57689,0,0,1,6.50391,2.59179,9.73808,9.73808,0,0,1,2.47168,7.00879v14.97559h-3.168V153.52246a6.75643,6.75643,0,0,0-1.6084-4.82422,5.56941,5.56941,0,0,0-4.24707-1.7041,6.27257,6.27257,0,0,0-4.82422,1.99219q-1.84863,1.99218-1.84863,6.21582v13.2959h-3.168V153.52246a7.01689,7.01689,0,0,0-1.51172-4.84863,5.24648,5.24648,0,0,0-4.10351-1.67969,6.66558,6.66558,0,0,0-4.89649,2.01563q-2.01562,2.01708-2.01562,6.19238v13.2959h-3.168v-24h3.168v3.5039a8.22247,8.22247,0,0,1,7.34375-4.08007,7.45305,7.45305,0,0,1,7.2959,4.36816A8.47,8.47,0,0,1,871.80493,143.92188Z"/><path class="cls-7" d="M898.012,143.92188a10.88888,10.88888,0,0,1,8.61622,3.76855,13.10373,13.10373,0,0,1,3.28711,8.90332q0,.52881-.09571,1.48828H888.74732a8.60335,8.60335,0,0,0,3.09668,5.78418,9.87258,9.87258,0,0,0,6.45605,2.13574,9.44212,9.44212,0,0,0,4.72754-1.12793,7.60973,7.60973,0,0,0,3-2.95214l2.78418,1.63183a11.38143,11.38143,0,0,1-4.32031,4.03223,12.85837,12.85837,0,0,1-6.23926,1.48828,12.46919,12.46919,0,0,1-9.2168-3.55176,12.22553,12.22553,0,0,1-3.55176-9.02441,12.35592,12.35592,0,0,1,3.50391-8.97559A12.03936,12.03936,0,0,1,898.012,143.92188Zm0,3.07226a8.98489,8.98489,0,0,0-9.26464,8.01563h17.90429a8.95056,8.95056,0,0,0-2.92773-5.90332A8.47308,8.47308,0,0,0,898.012,146.99414Z"/><path class="cls-7" d="M926.18775,143.92188a9.02783,9.02783,0,0,1,6.88867,2.66406,10.01812,10.01812,0,0,1,2.51953,7.17578v14.73633h-3.168V153.76172a6.91761,6.91761,0,0,0-1.7041-4.99121,6.37273,6.37273,0,0,0-4.82422-1.77637,7.553,7.553,0,0,0-5.61523,2.18359q-2.16065,2.18556-2.16016,6.74415v12.57617h-3.168v-24h3.168v3.74414A8.87255,8.87255,0,0,1,926.18775,143.92188Z"/><path class="cls-7" d="M954.46021,147.57031H947.5481v14.54395a4.121,4.121,0,0,0,.76758,2.80762,3.03447,3.03447,0,0,0,2.30468.86425q1.53516.0249,3.83985-.07226v2.78418q-5.04052.76758-7.56055-.71973-2.51954-1.48828-2.51953-5.66406V147.57031h-5.04v-3.07226h5.04v-5.75977l3.168-.96v6.71973h6.91211Z"/></g></g></svg>