<svg xmlns="http://www.w3.org/2000/svg" viewBox="0 0 286.647 93.895">
  <defs>
    <style>
      .cls-1, .cls-2, .cls-3 {
        fill: #e0e0e0;
      }

      .cls-2 {
        font-size: 57px;
        font-family: UniNeueHeavy, Uni Neue;
      }

      .cls-3 {
        font-size: 18px;
        font-family: UniNeueRegular, Uni Neue;
        opacity: 0.7;
      }
    </style>
  </defs>
  <g id="Group_494" data-name="Group 494" transform="translate(-259 -20)">
    <path id="Subtraction_1" data-name="Subtraction 1" class="cls-1" d="M80.41,84.849h0a35.37,35.37,0,0,0-50.645,0L0,55.086,55.086,0l55.086,55.086L80.41,84.848ZM55.33,29.165a20.244,20.244,0,1,0,14.313,5.929A20.109,20.109,0,0,0,55.33,29.165Zm0,29.584a9.342,9.342,0,1,1,9.343-9.343A9.353,9.353,0,0,1,55.33,58.749Z" transform="translate(259 25.923)"/>
    <g id="Group_3" data-name="Group 3" transform="translate(388.647 20)">
      <text id="joinuz" class="cls-2" transform="translate(2 60)"><tspan x="0" y="0">joinuz</tspan></text>
      <text id="jouw_detacheerder_" data-name="jouw detacheerder!" class="cls-3" transform="translate(4.035 88.895)"><tspan x="0" y="0">jouw detacheerder!</tspan></text>
    </g>
  </g>
</svg>
