<svg xmlns="http://www.w3.org/2000/svg" viewBox="0 0 1283.498 178.098">
  <defs>
    <style>
      .cls-1 {
        opacity: 0.99;
      }

      .cls-2 {
        fill: #e0e0e0;
      }
    </style>
  </defs>
  <g id="logo-black" transform="translate(-0.013)">
    <g id="Слой_1" data-name="Слой 1" class="cls-1">
      <path id="Path_1" data-name="Path 1" class="cls-2" d="M8.517,2.749H66.871A8.5,8.5,0,0,1,74.233,7l57.6,99.631a8.5,8.5,0,0,1,.023,8.472l-28.99,50.792a8.5,8.5,0,0,1-14.748.041L1.154,15.509A8.5,8.5,0,0,1,8.517,2.749Z"/>
      <path id="Path_2" data-name="Path 2" class="cls-2" d="M123.689,2.749h58.35a8.5,8.5,0,0,1,7.362,12.76L102.378,166.034a8.5,8.5,0,0,1-14.719.01L58.5,115.754a8.5,8.5,0,0,1-.009-8.516L116.323,7a8.5,8.5,0,0,1,7.366-4.254Z"/>
      <path id="Path_3" data-name="Path 3" class="cls-2" d="M219.94,2.749h58.248a8.5,8.5,0,0,1,7.373,12.741L199.2,165.764a8.5,8.5,0,0,1-7.373,4.267H132.468a8.5,8.5,0,0,1-7.35-12.782L212.591,6.975a8.5,8.5,0,0,1,7.349-4.226Z"/>
      <path id="Path_4" data-name="Path 4" class="cls-2" d="M403.038,170.282H344.684a8.5,8.5,0,0,1-7.362-4.248L279.722,66.4a8.5,8.5,0,0,1-.023-8.472l28.99-50.792A8.5,8.5,0,0,1,323.437,7.1L410.4,157.522a8.5,8.5,0,0,1-7.362,12.76Z"/>
      <path id="Path_5" data-name="Path 5" class="cls-2" d="M287.866,170.282h-58.35a8.5,8.5,0,0,1-7.362-12.76L309.177,7a8.5,8.5,0,0,1,14.719-.01l29.164,50.29a8.5,8.5,0,0,1,.009,8.516L295.232,166.028A8.5,8.5,0,0,1,287.866,170.282Z"/>
      <path id="Path_6" data-name="Path 6" class="cls-2" d="M488.8,119.04q-17.123,0-28.56-7.44A40.511,40.511,0,0,1,444,91.359l22.08-12.8Q472.8,94.081,489.6,94.08q15.2,0,15.2-9.12,0-4.957-4.88-7.76T481.6,70.72a82.042,82.042,0,0,1-12.32-4.32,51.588,51.588,0,0,1-10.32-6.319,25.329,25.329,0,0,1-7.68-9.84,33.091,33.091,0,0,1-2.64-13.6q0-15.517,11.119-24.8a40.017,40.017,0,0,1,26.48-9.28,45.552,45.552,0,0,1,24.32,6.48,44.5,44.5,0,0,1,16.64,18.8l-21.6,12.64a24.952,24.952,0,0,0-7.52-9.68q-4.481-3.277-11.84-3.28-5.76,0-8.88,2.48a7.443,7.443,0,0,0-3.12,6q0,4.162,3.92,7.2t16.24,6.72Q501.12,52,504.8,53.28a74.13,74.13,0,0,1,9.36,4.239,30.752,30.752,0,0,1,8.64,6.24,31.534,31.534,0,0,1,5.28,8.64,30.593,30.593,0,0,1,2.32,12.24q0,16-11.521,25.2T488.8,119.04Z"/>
      <path id="Path_7" data-name="Path 7" class="cls-2" d="M613.279,106.8a43.079,43.079,0,0,1-60.159,0,40.65,40.65,0,0,1-12.32-30,42.4,42.4,0,1,1,84.8,0,40.662,40.662,0,0,1-12.32,30Zm-43.2-16.4a18.939,18.939,0,0,0,26.239,0,18.4,18.4,0,0,0,5.28-13.6,18.407,18.407,0,0,0-5.28-13.6,18.939,18.939,0,0,0-26.239,0,18.407,18.407,0,0,0-5.28,13.6,18.4,18.4,0,0,0,5.28,13.6Z"/>
      <path id="Path_8" data-name="Path 8" class="cls-2" d="M639.2,116.8V0h24V116.8Z"/>
      <path id="Path_9" data-name="Path 9" class="cls-2" d="M702.958,25.52a14.293,14.293,0,0,1-20.32,0,13.853,13.853,0,0,1-4.239-10.16A13.86,13.86,0,0,1,682.638,5.2a14.293,14.293,0,0,1,20.32,0,13.868,13.868,0,0,1,4.24,10.159,13.861,13.861,0,0,1-4.24,10.16ZM680.8,116.8v-80h24v80Z"/>
      <path id="Path_10" data-name="Path 10" class="cls-2" d="M780.478,4.8h24v112h-24v-7.52q-8.483,9.76-23.84,9.76-15.839,0-27.04-12.24t-11.2-30q0-17.76,11.2-30t27.04-12.24q15.36,0,23.84,9.76Zm-32.8,86.24q5.279,5.279,13.76,5.279T775.2,91.04q5.281-5.281,5.28-14.24T775.2,62.56q-5.279-5.279-13.76-5.279t-13.76,5.279Q742.4,67.84,742.4,76.8T747.678,91.04Z"/>
      <path id="Path_11" data-name="Path 11" class="cls-2" d="M840.156,102.72h52V116.8h-66.88V4.8h66.08V18.88h-51.2v34.4h47.2V67.2h-47.2Z"/>
      <path id="Path_12" data-name="Path 12" class="cls-2" d="M978.075,116.8h-16.32l-22.4-30.24L916.8,116.8H900.476L931.2,75.68,902.236,36.8h16.479l20.641,27.84L960,36.8h16.32l-28.8,38.72Z"/>
      <path id="Path_13" data-name="Path 13" class="cls-2" d="M1035.195,34.72a38.387,38.387,0,0,1,28.641,12.24q11.839,12.24,11.84,29.84t-11.84,29.84a38.387,38.387,0,0,1-28.641,12.24q-19.841,0-30.239-15.84V148.8H991.034V36.8h13.921V50.56Q1015.353,34.72,1035.195,34.72Zm-1.76,70.72a27.248,27.248,0,0,0,20.16-8.239,27.849,27.849,0,0,0,8.16-20.4,27.856,27.856,0,0,0-8.16-20.4,28.98,28.98,0,0,0-40.481,0,27.855,27.855,0,0,0-8.159,20.4,27.848,27.848,0,0,0,8.159,20.4,27.439,27.439,0,0,0,20.32,8.239Z"/>
      <path id="Path_14" data-name="Path 14" class="cls-2" d="M1102.074,83.2q2.077,10.721,9.84,16.64t19.12,5.92q15.839,0,23.04-11.68l11.84,6.72q-11.682,18.082-35.2,18.08-19.043,0-30.96-11.92t-11.92-30.16q0-18.079,11.68-30.08t30.24-12q17.6,0,28.72,12.4t11.12,29.84a42.145,42.145,0,0,1-.48,6.24Zm27.68-35.36q-11.2,0-18.56,6.32a27.35,27.35,0,0,0-9.12,16.88h53.439q-1.762-11.358-8.96-17.28a25.663,25.663,0,0,0-16.8-5.92Z"/>
      <path id="Path_15" data-name="Path 15" class="cls-2" d="M1199.514,50.24q6.877-14.881,24.96-14.881V49.92a25.226,25.226,0,0,0-17.6,5.439q-7.361,5.922-7.359,19.04v42.4h-13.921v-80h13.921Z"/>
      <path id="Path_16" data-name="Path 16" class="cls-2" d="M1283.511,50.24h-21.28V93.6q0,5.921,2.32,8.4t7.12,2.56q4.8.083,11.84-.24V116.8q-18.24,2.4-26.72-2.96t-8.48-20.24V50.24h-15.84V36.8h15.84V18.56l13.92-4.16V36.8h21.28Z"/>
      <path id="Path_17" data-name="Path 17" class="cls-2" d="M463.809,169.074a13.935,13.935,0,0,1-7.9-2.185,11.386,11.386,0,0,1-4.584-6.023l2.88-1.68a8.829,8.829,0,0,0,3.36,4.871,10.541,10.541,0,0,0,6.288,1.752,9.167,9.167,0,0,0,5.832-1.655,5.329,5.329,0,0,0,2.088-4.393,4.549,4.549,0,0,0-1.92-3.983,25.555,25.555,0,0,0-6.336-2.784,37.328,37.328,0,0,1-6.912-2.784,7.343,7.343,0,0,1-3.84-6.672,8.3,8.3,0,0,1,2.976-6.744,11.112,11.112,0,0,1,7.345-2.472,11.484,11.484,0,0,1,6.815,2.04,12.4,12.4,0,0,1,4.272,5.208l-2.832,1.584a8.282,8.282,0,0,0-8.256-5.568,7.826,7.826,0,0,0-5.04,1.536,5.166,5.166,0,0,0-1.92,4.272,4.313,4.313,0,0,0,1.728,3.743,21.808,21.808,0,0,0,5.712,2.544q1.824.626,2.616.889t2.3.863a14.465,14.465,0,0,1,2.232,1.057q.719.457,1.752,1.248a5.619,5.619,0,0,1,1.487,1.584,9.844,9.844,0,0,1,.816,1.92,7.92,7.92,0,0,1,.36,2.424,8.408,8.408,0,0,1-3.12,6.84,12.5,12.5,0,0,1-8.208,2.568Z"/>
      <path id="Path_18" data-name="Path 18" class="cls-2" d="M501.032,165.45a12.66,12.66,0,1,1,0-17.9,12.869,12.869,0,0,1,0,17.9Zm-15.672-2.208a9.561,9.561,0,0,0,13.439,0,9.679,9.679,0,0,0,0-13.488,9.561,9.561,0,0,0-13.439,0,9.679,9.679,0,0,0,0,13.488Z"/>
      <path id="Path_19" data-name="Path 19" class="cls-2" d="M521.024,137.395q-3.5-.289-5.208,1.2t-1.7,4.944v.96h6.911v3.072h-6.911V168.5h-3.169V147.57h-4.079V144.5h4.079v-.96q0-4.7,2.616-7.128t7.464-2.088Z"/>
      <path id="Path_20" data-name="Path 20" class="cls-2" d="M538.063,147.57h-6.912v14.544a4.121,4.121,0,0,0,.768,2.808,3.033,3.033,0,0,0,2.3.864q1.535.025,3.84-.072V168.5q-5.041.768-7.561-.72t-2.52-5.664V147.57h-5.04V144.5h5.04v-5.76l3.168-.96v6.72h6.912Z"/>
      <path id="Path_21" data-name="Path 21" class="cls-2" d="M572.239,144.5H575.5l-7.392,24h-3.456l-6.192-19.344L552.271,168.5h-3.456l-7.393-24h3.265l5.9,19.92,6.288-19.92h3.168l6.288,19.92Z"/>
      <path id="Path_22" data-name="Path 22" class="cls-2" d="M599.983,144.5h3.168v24h-3.168v-4.7a10.744,10.744,0,0,1-9.7,5.28,11.891,11.891,0,0,1-8.76-3.648,12.809,12.809,0,0,1,0-17.855,11.9,11.9,0,0,1,8.76-3.648,10.745,10.745,0,0,1,9.7,5.28Zm-16.176,18.744a9.561,9.561,0,0,0,13.439,0,9.679,9.679,0,0,0,0-13.488,9.561,9.561,0,0,0-13.44,0A9.679,9.679,0,0,0,583.807,163.242Z"/>
      <path id="Path_23" data-name="Path 23" class="cls-2" d="M613.037,148.482q2.208-4.368,7.584-4.368v3.072a7.862,7.862,0,0,0-5.424,1.92q-2.159,1.92-2.16,6.048V168.5h-3.168v-24h3.168Z"/>
      <path id="Path_24" data-name="Path 24" class="cls-2" d="M634.59,143.922a10.889,10.889,0,0,1,8.616,3.769,13.1,13.1,0,0,1,3.287,8.9q0,.529-.1,1.488H625.325a8.6,8.6,0,0,0,3.1,5.784A9.873,9.873,0,0,0,634.878,166a9.442,9.442,0,0,0,4.728-1.128,7.609,7.609,0,0,0,3-2.952l2.784,1.632a11.381,11.381,0,0,1-4.32,4.032,12.858,12.858,0,0,1-6.239,1.488,12.469,12.469,0,0,1-9.217-3.552,12.225,12.225,0,0,1-3.552-9.024,12.356,12.356,0,0,1,3.5-8.976,12.039,12.039,0,0,1,9.024-3.6Zm0,3.072a8.985,8.985,0,0,0-9.265,8.016h17.9a8.95,8.95,0,0,0-2.928-5.9A8.473,8.473,0,0,0,634.59,146.994Z"/>
      <path id="Path_25" data-name="Path 25" class="cls-2" d="M676.974,134.9a14.771,14.771,0,0,1,11.352,4.872,18.1,18.1,0,0,1,0,23.855,14.771,14.771,0,0,1-11.353,4.872h-12.96V134.9Zm0,30.432a11.6,11.6,0,0,0,9.048-3.936,15.087,15.087,0,0,0,0-19.393,11.6,11.6,0,0,0-9.048-3.936h-9.6V165.33Z"/>
      <path id="Path_26" data-name="Path 26" class="cls-2" d="M709.182,143.922a10.889,10.889,0,0,1,8.616,3.769,13.1,13.1,0,0,1,3.287,8.9q0,.529-.1,1.488H699.917a8.6,8.6,0,0,0,3.1,5.784A9.873,9.873,0,0,0,709.47,166a9.442,9.442,0,0,0,4.727-1.128,7.61,7.61,0,0,0,3-2.952l2.784,1.632a11.381,11.381,0,0,1-4.32,4.032,12.859,12.859,0,0,1-6.239,1.488,12.469,12.469,0,0,1-9.217-3.552,12.226,12.226,0,0,1-3.552-9.024,12.356,12.356,0,0,1,3.5-8.976A12.039,12.039,0,0,1,709.182,143.922Zm0,3.072a8.985,8.985,0,0,0-9.265,8.016h17.9a8.951,8.951,0,0,0-2.928-5.9,8.473,8.473,0,0,0-5.712-2.112Z"/>
      <path id="Path_27" data-name="Path 27" class="cls-2" d="M742.447,144.5h3.36l-9.84,24h-3.84l-9.84-24h3.359l8.4,20.688Z"/>
      <path id="Path_28" data-name="Path 28" class="cls-2" d="M759.775,143.922a10.889,10.889,0,0,1,8.616,3.769,13.1,13.1,0,0,1,3.287,8.9q0,.529-.1,1.488H750.51a8.6,8.6,0,0,0,3.1,5.784A9.873,9.873,0,0,0,760.063,166a9.442,9.442,0,0,0,4.728-1.128,7.61,7.61,0,0,0,3-2.952l2.784,1.632a11.381,11.381,0,0,1-4.32,4.032,12.858,12.858,0,0,1-6.239,1.488,12.469,12.469,0,0,1-9.217-3.552,12.225,12.225,0,0,1-3.552-9.024,12.356,12.356,0,0,1,3.5-8.976,12.039,12.039,0,0,1,9.024-3.6Zm0,3.072a8.985,8.985,0,0,0-9.265,8.016h17.9a8.95,8.95,0,0,0-2.928-5.9A8.473,8.473,0,0,0,759.775,146.994Z"/>
      <path id="Path_29" data-name="Path 29" class="cls-2" d="M776.719,168.5v-35.04h3.168V168.5Z"/>
      <path id="Path_30" data-name="Path 30" class="cls-2" d="M806.742,165.45a12.66,12.66,0,1,1,0-17.9,12.869,12.869,0,0,1,0,17.9Zm-15.672-2.208a9.561,9.561,0,0,0,13.439,0,9.679,9.679,0,0,0,0-13.488,9.561,9.561,0,0,0-13.439,0,9.679,9.679,0,0,0,0,13.488Z"/>
      <path id="Path_31" data-name="Path 31" class="cls-2" d="M828.557,143.922a11.9,11.9,0,0,1,8.761,3.648,12.809,12.809,0,0,1,0,17.856,11.9,11.9,0,0,1-8.761,3.648,10.742,10.742,0,0,1-9.7-5.28v14.3h-3.168V144.5h3.168v4.7a10.744,10.744,0,0,1,9.7-5.28Zm-6.96,19.32a9.562,9.562,0,0,0,13.44,0,9.679,9.679,0,0,0,0-13.488,9.562,9.562,0,0,0-13.44,0,9.682,9.682,0,0,0,0,13.488Z"/>
      <path id="Path_32" data-name="Path 32" class="cls-2" d="M871.8,143.922a8.577,8.577,0,0,1,6.5,2.592,9.738,9.738,0,0,1,2.472,7.009V168.5h-3.168V153.522A6.757,6.757,0,0,0,876,148.7a5.569,5.569,0,0,0-4.247-1.7,6.273,6.273,0,0,0-4.824,1.992q-1.849,1.992-1.849,6.216v13.3h-3.168V153.522a7.017,7.017,0,0,0-1.512-4.849,5.246,5.246,0,0,0-4.1-1.68,6.666,6.666,0,0,0-4.9,2.016q-2.016,2.017-2.016,6.192v13.3h-3.168v-24h3.168V148a8.223,8.223,0,0,1,7.344-4.08,7.453,7.453,0,0,1,7.3,4.368A8.47,8.47,0,0,1,871.8,143.922Z"/>
      <path id="Path_33" data-name="Path 33" class="cls-2" d="M898.012,143.922a10.889,10.889,0,0,1,8.616,3.769,13.1,13.1,0,0,1,3.287,8.9q0,.529-.1,1.488H888.747a8.6,8.6,0,0,0,3.1,5.784A9.872,9.872,0,0,0,898.3,166a9.442,9.442,0,0,0,4.728-1.128,7.609,7.609,0,0,0,3-2.952l2.784,1.632a11.382,11.382,0,0,1-4.32,4.032,12.859,12.859,0,0,1-6.239,1.488,12.469,12.469,0,0,1-9.217-3.552,12.226,12.226,0,0,1-3.552-9.024,12.356,12.356,0,0,1,3.5-8.976,12.039,12.039,0,0,1,9.024-3.6Zm0,3.072a8.985,8.985,0,0,0-9.265,8.016h17.9a8.95,8.95,0,0,0-2.928-5.9,8.473,8.473,0,0,0-5.712-2.112Z"/>
      <path id="Path_34" data-name="Path 34" class="cls-2" d="M926.188,143.922a9.028,9.028,0,0,1,6.889,2.664,10.018,10.018,0,0,1,2.52,7.176V168.5h-3.168V153.762a6.918,6.918,0,0,0-1.7-4.991,6.372,6.372,0,0,0-4.824-1.776,7.553,7.553,0,0,0-5.615,2.184q-2.161,2.186-2.16,6.744V168.5h-3.168v-24h3.168v3.744A8.873,8.873,0,0,1,926.188,143.922Z"/>
      <path id="Path_35" data-name="Path 35" class="cls-2" d="M954.46,147.57h-6.912v14.544a4.121,4.121,0,0,0,.768,2.808,3.034,3.034,0,0,0,2.3.864q1.535.025,3.84-.072V168.5q-5.041.768-7.561-.72t-2.52-5.664V147.57h-5.04V144.5h5.04v-5.76l3.168-.96v6.72h6.912Z"/>
    </g>
  </g>
</svg>
