<svg xmlns="http://www.w3.org/2000/svg" viewBox="0 0 4904.446 1310">
  <defs>
    <style>
      .cls-1, .cls-2 {
        fill: rgba(224,224,224,0.94);
      }

      .cls-2 {
        fill-rule: evenodd;
      }
    </style>
  </defs>
  <g id="fotobrief" transform="translate(-20.789 -26.506)">
    <g id="g4199" transform="translate(438.059 -47.494)">
      <g id="Слой_x0020_1_0">
        <g id="_2926909444624">
          <path id="path3402" class="cls-1" d="M361,74V312h76V151H2259v51c-71,17-124,82-124,157,0,76,53,140,124,157v56c-71,18-124,82-124,157,0,76,53,140,124,157v56c-71,18-124,82-124,157,0,76,53,140,124,157v52H437V1099H361v285H2335V1184h-38c-47,0-85-37-85-85a84.929,84.929,0,0,1,85-85h38V814h-38c-47,0-85-37-85-85a84.929,84.929,0,0,1,85-85h38V444h-38c-47,0-85-37-85-85a84.929,84.929,0,0,1,85-85h38V74Z"/>
        </g>
      </g>
      <g id="flowRoot4159" transform="translate(1345.601 250.32)">
        <path id="path4178" class="cls-2" d="M-1646.4,527.027V698.97h-116.467v-501.7h191.584q89.245,0,141.62,45.484t52.375,119.568q0,74.084-52.375,119.568-52.375,45.139-141.62,45.139H-1646.4Zm0-89.59h75.117q37.9,0,57.889-20.675,19.985-21.019,19.985-53.754,0-33.424-19.985-54.788-19.641-21.364-57.889-21.364H-1646.4V437.438Z"/>
        <path id="path4180" class="cls-2" d="M-893.852,698.97h-116.122V497.049H-1195.7V698.97h-116.467v-501.7H-1195.7V407.46h185.726V197.269h116.122v501.7Z"/>
        <path id="path4182" class="cls-2" d="M-396.285,493.259q0,92.691-58.922,152.991-58.578,59.956-153.336,59.956-95.447,0-154.714-59.956-59.267-60.3-59.267-152.992V402.98q0-92.346,58.922-152.647,59.267-60.3,154.37-60.3,94.414,0,153.681,60.3t59.267,152.647v90.279Zm-116.122-90.968q0-53.754-25.5-88.211-25.154-34.458-71.327-34.458-47.207,0-72.361,34.458Q-706.4,348.193-706.4,402.291v90.968q0,54.443,25.154,88.9,25.5,34.458,72.705,34.458,45.829,0,70.983-34.458t25.154-88.9V402.291Z"/>
        <path id="path4184" class="cls-2" d="M14.1,286.858H-118.557V698.97H-235.024V286.858h-130.25v-89.59H14.1Z"/>
        <path id="path4186" class="cls-2" d="M469.289,493.259q0,92.691-58.922,152.991-58.578,59.956-153.336,59.956-95.447,0-154.714-59.956-59.267-60.3-59.267-152.992V402.98q0-92.346,58.922-152.647,59.267-60.3,154.37-60.3,94.414,0,153.681,60.3T469.289,402.98v90.279ZM353.167,402.291q0-53.754-25.5-88.211-25.154-34.458-71.327-34.458-47.207,0-72.361,34.458-24.809,34.113-24.809,88.211v90.968q0,54.443,25.154,88.9,25.5,34.458,72.705,34.458,45.829,0,70.983-34.458t25.154-88.9Z"/>
      </g>
      <g id="text4171">
        <path id="path4189" class="cls-2" d="M2645.42,939.329v-501.7h164.362q93.38,0,145.411,34.8,52.375,34.458,52.375,103.028,0,35.836-16.54,63.746-16.54,27.566-51.686,41.694,44.795,9.648,66.158,39.971,21.708,30.323,21.708,69.949,0,73.395-49.274,110.953T2836.66,939.329H2645.42Zm116.467-215.36v125.77h74.773q37.214,0,55.821-14.472,18.607-14.817,18.607-45.139,0-32.046-16.54-48.585-16.195-16.54-53.754-17.573h-78.908Zm0-77.185h45.829q42.038,0,62.713-14.472Q2891.1,617.5,2891.1,588.551q0-32.046-19.985-46.518-19.985-14.817-61.334-14.817h-47.9Z"/>
        <path id="path4191" class="cls-2" d="M3212.592,747.056V939.329H3096.125v-501.7h174.7q87.178,0,138.175,40.315t51,110.264q0,38.937-20.675,66.848-20.33,27.911-60.3,45.484,46.173,13.094,66.158,43.761,20.33,30.323,20.33,75.807v31.7q0,19.641,5.858,44.795t20.33,35.836v6.892H3371.441q-13.783-10.682-17.918-37.559a333.9,333.9,0,0,1-4.135-50.653V820.8q0-35.836-18.952-54.787t-55.477-18.952h-62.368Zm0-89.59h58.922q35.147,0,53.754-15.85,18.607-16.2,18.607-46.173,0-30.667-19.3-49.274-18.952-18.952-53.754-18.952h-58.233Z"/>
        <path id="path4193" class="cls-2" d="M3670.188,939.329H3554.066v-501.7h116.122Z"/>
        <path id="path4195" class="cls-2" d="M4050.944,724.659H3874.177V849.739H4086.09v89.59H3757.71v-501.7h328.725v89.59H3874.177V635.069h176.767v89.59Z"/>
        <path id="path4197" class="cls-2" d="M4452.029,737.408H4268.371V939.329H4151.9v-501.7h335.272v89.59H4268.371v120.6H4452.03v89.59Z"/>
      </g>
    </g>
  </g>
</svg>
