<?xml version="1.0" encoding="utf-8"?>
<!-- Generator: Adobe Illustrator 22.0.1, SVG Export Plug-In . SVG Version: 6.00 Build 0)  -->
<svg version="1.1" id="Слой_1" xmlns="http://www.w3.org/2000/svg" xmlns:xlink="http://www.w3.org/1999/xlink" x="0px" y="0px"
	 viewBox="0 0 203 77.6" style="enable-background:new 0 0 203 77.6;" xml:space="preserve">
<style type="text/css">
	.st0{fill:#00B715;}
	.st1{fill:#FDC51C;}
	.st2{fill:#885DF1;}
	.st3{fill:#FC487F;}
	.st4{enable-background:new    ;}
	.st5{fill:#2B2B2B;}
</style>
<g id="Group_80" transform="translate(-2818 -3395)">
	<g id="Group_69" transform="translate(87 817)">
		<polygon class="st0" points="2754.7,2644.1 2747.1,2636.5 2758.7,2625 2747.1,2613.4 2754.7,2605.9 2773.9,2625 		"/>
		<polygon class="st1" points="2779.1,2619.2 2760,2600.1 2779.1,2581 2786.7,2588.5 2775.2,2600.1 2786.7,2611.6 		"/>
		<path class="st2" d="M2778.4,2627.2c-4.1,4.1-6.5,9.7-6.5,15.5c0,1.4,0.1,2.7,0.4,4h11.1c-0.5-1.3-0.7-2.6-0.7-4
			c0-3,1.2-5.9,3.3-8c2.1-2.1,5-3.3,8-3.3c1.7,0,3.2,0.4,4.7,1v-11.2c-1.5-0.3-3.1-0.5-4.7-0.5
			C2788.1,2620.7,2782.5,2623.1,2778.4,2627.2z"/>
		<polygon class="st3" points="2742.3,2591.3 2731,2580 2731,2595.1 2742.3,2606.4 2769.6,2579.1 2754.5,2579.1 		"/>
	</g>
</g>
<g id="Group_70" transform="translate(309 817)">
	<g class="st4">
		<path class="st5" d="M-222-784.5c-3.1,0-5.7-0.7-7.8-2c-2.1-1.3-3.6-3.2-4.5-5.6l6.1-3.6c1.2,2.8,3.3,4.3,6.4,4.3
			c2.7,0,4.2-0.8,4.2-2.5c0-0.9-0.5-1.7-1.3-2.1c-0.9-0.5-2.6-1.1-5-1.8c-1.3-0.4-2.4-0.7-3.3-1.2s-1.9-1.1-2.8-1.8
			c-0.9-0.7-1.7-1.7-2.1-2.7c-0.5-1.1-0.7-2.4-0.7-3.7c0-2.8,1.1-5.1,3.1-6.8c2-1.7,4.5-2.5,7.2-2.5c2.5,0,4.7,0.6,6.6,1.8
			c1.9,1.2,3.4,2.8,4.5,5.1l-5.9,3.4c-0.6-1.2-1.2-2-2-2.6s-1.9-0.9-3.2-0.9c-1.1,0-1.9,0.2-2.5,0.7s-0.8,0.9-0.8,1.7
			c0,0.7,0.4,1.4,1.1,2c0.7,0.6,2.3,1.2,4.5,1.9c1.2,0.4,2.1,0.7,2.8,0.9c0.7,0.2,1.5,0.6,2.6,1.2c1.1,0.6,1.8,1.1,2.4,1.7
			s1.1,1.4,1.4,2.4c0.5,0.9,0.6,2.1,0.6,3.3c0,3-1.1,5.2-3.2,6.9C-215.8-785.3-218.7-784.5-222-784.5z"/>
		<path class="st5" d="M-187.6-787.8c-2.3,2.3-5,3.3-8.3,3.3c-3.2,0-6.1-1.1-8.3-3.3c-2.3-2.3-3.3-5-3.3-8.2s1.1-6.1,3.3-8.2
			c2.3-2.3,5-3.3,8.3-3.3c3.2,0,6.1,1.1,8.3,3.3c2.3,2.3,3.3,5,3.3,8.2S-185.3-790-187.6-787.8z M-199.4-792.3
			c0.9,0.9,2.1,1.4,3.6,1.4c1.4,0,2.6-0.5,3.6-1.4c0.9-0.9,1.4-2.3,1.4-3.7c0-1.5-0.5-2.7-1.4-3.7c-0.9-0.9-2.1-1.4-3.6-1.4
			c-1.4,0-2.6,0.5-3.6,1.4s-1.4,2.3-1.4,3.7C-201-794.5-200.4-793.2-199.4-792.3z"/>
		<path class="st5" d="M-180.3-785v-32.1h6.5v32.1H-180.3z"/>
		<path class="st5" d="M-162.5-810.1c-0.8,0.8-1.7,1.2-2.7,1.2c-1.1,0-2-0.4-2.7-1.2c-0.8-0.8-1.2-1.7-1.2-2.7c0-1.1,0.4-2,1.2-2.7
			c0.8-0.8,1.7-1.2,2.7-1.2c1.1,0,2,0.4,2.7,1.2c0.8,0.8,1.2,1.7,1.2,2.7C-161.4-811.8-161.8-810.9-162.5-810.1z M-168.7-785v-22
			h6.5v22H-168.7z"/>
		<path class="st5" d="M-141-815.8h6.6v30.7h-6.6v-2c-1.5,1.8-3.7,2.7-6.5,2.7c-2.8,0-5.3-1.1-7.5-3.3s-3.1-5-3.1-8.2
			s1.1-6.1,3.1-8.2c2-2.1,4.5-3.3,7.5-3.3c2.8,0,5,0.9,6.5,2.7V-815.8z M-150-792.2c0.9,0.9,2.3,1.4,3.8,1.4s2.8-0.5,3.8-1.4
			c0.9-0.9,1.4-2.3,1.4-3.9c0-1.7-0.5-3-1.4-3.9c-0.9-0.9-2.3-1.4-3.8-1.4s-2.8,0.5-3.8,1.4s-1.4,2.3-1.4,3.9S-151-793.1-150-792.2z
			"/>
	</g>
	<g class="st4">
		<path class="st5" d="M-228.9-751.1h15v2.8h-17.9V-779h17.8v2.8h-14.7v10.9h13.7v2.8h-13.7v11.3H-228.9z"/>
		<path class="st5" d="M-190.4-748.2h-3.4l-6.9-9l-6.9,9h-3.4l8.7-11.4l-8.1-10.6h3.4l6.3,8.3l6.3-8.3h3.4l-8,10.6L-190.4-748.2z"/>
		<path class="st5" d="M-174.4-770.7c3.1,0,5.8,1.1,8.1,3.3c2.3,2.3,3.3,5,3.3,8.2c0,3.2-1.1,5.9-3.3,8.2c-2.3,2.3-4.9,3.3-8.1,3.3
			c-3.9,0-6.9-1.7-8.9-4.9v13.1h-2.8v-30.7h2.8v4.3C-181.3-769.1-178.3-770.7-174.4-770.7z M-180.8-753.1c1.7,1.7,3.7,2.5,6.2,2.5
			c2.4,0,4.5-0.8,6.2-2.5c1.7-1.7,2.5-3.8,2.5-6.2s-0.8-4.5-2.5-6.2c-1.7-1.7-3.7-2.5-6.2-2.5c-2.4,0-4.5,0.8-6.2,2.5
			c-1.7,1.7-2.5,3.8-2.5,6.2C-183.3-756.8-182.5-754.8-180.8-753.1z"/>
		<path class="st5" d="M-147.9-770.7c3.2,0,5.9,1.2,7.8,3.4c1.9,2.3,3,5,3,8.2c0,0.4,0,0.8-0.1,1.3h-19.2c0.2,2.3,1.2,4,2.8,5.3
			c1.5,1.3,3.6,1.9,5.9,1.9c1.7,0,3.1-0.4,4.3-1.1c1.2-0.7,2.1-1.5,2.7-2.7l2.5,1.5c-0.9,1.5-2.3,2.7-3.9,3.7
			c-1.7,0.9-3.6,1.3-5.7,1.3c-3.4,0-6.3-1.1-8.4-3.2s-3.2-4.9-3.2-8.3c0-3.3,1.1-6.1,3.2-8.2C-154.1-769.6-151.2-770.7-147.9-770.7z
			 M-147.9-768c-2.3,0-4.2,0.7-5.7,2c-1.5,1.3-2.5,3.1-2.7,5.3h16.4c-0.2-2.3-1.2-4.2-2.7-5.5C-144.2-767.2-145.9-768-147.9-768z"/>
		<path class="st5" d="M-129.3-766.5c1.3-2.6,3.7-4,6.9-4v2.8c-2,0-3.7,0.6-5,1.8c-1.3,1.2-2,3-2,5.6v12.2h-2.8v-22h2.8v3.6H-129.3z
			"/>
		<path class="st5" d="M-106.1-767.4h-6.3v13.3c0,1.2,0.2,2,0.7,2.6c0.5,0.5,1.2,0.8,2.1,0.8c0.9,0,2.1,0,3.6-0.1v2.5
			c-3.1,0.5-5.3,0.2-6.9-0.7s-2.3-2.6-2.3-5.2v-13.3h-4.6v-2.8h4.6v-5.2l2.8-0.8v6.2h6.3v2.8H-106.1z"/>
	</g>
</g>
</svg>
